<?xml version="1.0" encoding="utf-8"?>
<!-- Generator: Adobe Illustrator 27.1.1, SVG Export Plug-In . SVG Version: 6.00 Build 0)  -->
<svg version="1.1" id="Layer_1" xmlns="http://www.w3.org/2000/svg" xmlns:xlink="http://www.w3.org/1999/xlink" x="0px" y="0px"
	 viewBox="0 0 512 512" style="enable-background:new 0 0 512 512;" xml:space="preserve">
<style type="text/css">
	.st0{fill:#EB1C23;}
	.st1{fill:#FFFFFF;}
</style>
<rect x="-58" y="-55.1" class="st0" width="621" height="646"/>
<path class="st1" d="M328,256c0,16.6-0.9,32.7-2.5,48h-139c-1.6-15.3-2.5-31.3-2.5-48s0.9-32.7,2.5-48h139
	C327.2,223.3,328,239.4,328,256z M349.6,208h92.3c4,15.4,6.1,31.4,6.1,48s-2.1,32.6-6.1,48h-92.3c1.6-15.4,2.4-31.5,2.4-48
	S351.2,223.5,349.6,208z M434,184h-87.5C339,136.1,324.2,96,305,70.3C363.8,85.8,411.5,128.4,434,184L434,184z M322.2,184H189.8
	c4.6-27.3,11.6-51.4,20.2-71c7.9-17.7,16.6-30.5,25.1-38.6C243.6,66.4,250.5,64,256,64c5.5,0,12.4,2.4,20.8,10.3
	c8.5,8.1,17.2,20.9,25.1,38.6C310.7,132.5,317.7,156.6,322.2,184z M165.5,184H78c22.5-55.6,70.2-98.2,129-113.7
	C187.8,96,173,136.1,165.5,184L165.5,184z M70.1,208h92.3c-1.6,15.4-2.4,31.5-2.4,48s0.8,32.5,2.4,48H70.1c-4-15.4-6.1-31.4-6.1-48
	S66.1,223.4,70.1,208z M210,398.9c-8.7-19.5-15.7-43.6-20.2-70.9h132.4c-4.6,27.3-11.6,51.4-20.2,70.9
	c-7.9,17.7-16.6,30.5-25.1,38.6c-8.4,8-15.4,10.4-20.8,10.4c-5.5,0-12.4-2.4-20.8-10.3C226.7,429.5,217.9,416.7,210,398.9L210,398.9
	z M165.5,328c7.5,47.9,22.3,88,41.5,113.7C148.2,426.2,100.5,383.6,78,328H165.5z M434,328c-22.5,55.6-70.2,98.2-128.9,113.7
	C324.2,416,339,375.9,346.6,328H434L434,328z"/>
</svg>
