<?xml version="1.0" standalone="no"?>
<!DOCTYPE svg PUBLIC "-//W3C//DTD SVG 20010904//EN"
 "http://www.w3.org/TR/2001/REC-SVG-20010904/DTD/svg10.dtd">
<svg version="1.0" xmlns="http://www.w3.org/2000/svg"
 width="700.000000pt" height="700.000000pt" viewBox="0 0 700.000000 700.000000"
 preserveAspectRatio="xMidYMid meet">
<metadata>
Created by potrace 1.14, written by Peter Selinger 2001-2017
</metadata>
<g transform="translate(0.000000,700.000000) scale(0.100000,-0.100000)"
fill="#000000" stroke="none">
<path d="M3388 6980 c-390 -123 -794 -818 -1007 -1735 -30 -129 -56 -249 -66
-302 -2 -16 -9 -49 -14 -76 -4 -26 -6 -49 -2 -51 8 -5 2394 -5 2402 0 3 2 0
36 -8 76 -7 40 -16 89 -19 108 -3 19 -9 51 -14 70 -5 19 -12 51 -15 70 -3 19
-28 121 -55 225 -181 701 -464 1250 -778 1505 -137 112 -292 152 -424 110z"/>
<path d="M2565 6875 c-5 -2 -68 -22 -138 -44 -849 -273 -1558 -859 -1995
-1646 -60 -108 -172 -345 -172 -364 0 -14 1590 -12 1591 3 0 6 2 20 5 31 2 11
7 38 10 60 11 74 82 409 114 535 136 538 324 987 562 1343 52 78 57 93 23 82z"/>
<path d="M4414 6857 c218 -302 418 -740 555 -1217 32 -112 94 -359 107 -425 4
-22 8 -44 9 -50 10 -46 37 -181 41 -203 2 -15 9 -55 15 -88 l11 -62 794 0
c437 0 794 3 794 8 0 4 -21 54 -46 111 -141 320 -360 655 -600 918 -74 81
-254 257 -314 306 -25 21 -64 54 -88 74 -210 175 -558 382 -847 503 -116 48
-357 131 -414 142 -33 6 -33 6 -17 -17z"/>
<path d="M119 4369 c-12 -7 -25 -53 -50 -179 -20 -106 -23 -121 -34 -195 -36
-242 -41 -714 -10 -906 2 -13 6 -46 10 -74 9 -76 16 -116 25 -160 5 -22 11
-53 14 -70 9 -45 13 -66 26 -115 l11 -45 840 0 841 0 -7 95 c-4 52 -8 109 -10
125 -27 242 -27 1048 0 1315 2 19 6 71 10 114 3 44 8 83 11 88 3 4 -1 9 -8 9
-48 5 -1662 3 -1669 -2z"/>
<path d="M2235 4370 c-2 -3 -6 -42 -10 -85 -3 -44 -8 -91 -10 -105 -3 -14 -7
-79 -11 -145 -3 -66 -8 -145 -9 -175 -5 -76 -5 -620 -1 -705 9 -176 18 -324
22 -365 11 -115 16 -155 21 -160 6 -7 2524 -7 2528 0 2 3 6 39 9 80 4 41 8 89
10 105 5 33 17 230 21 340 4 99 4 636 0 720 -8 157 -24 393 -30 420 -2 11 -4
34 -4 50 l-1 30 -1266 0 c-696 0 -1267 -2 -1269 -5z"/>
<path d="M5215 4280 c4 -52 9 -111 10 -130 27 -347 27 -1024 0 -1310 -2 -19
-7 -76 -10 -125 l-7 -90 841 0 840 0 8 30 c3 16 8 35 9 40 14 52 52 258 59
320 4 28 8 61 11 75 26 150 26 622 -1 830 -7 62 -15 117 -20 140 -3 14 -8 41
-11 60 -11 71 -46 225 -54 240 -7 13 -115 15 -845 15 l-837 0 7 -95z"/>
<path d="M265 2180 c-11 -18 143 -333 237 -485 29 -47 58 -93 63 -103 45 -80
256 -352 349 -451 219 -232 412 -396 652 -557 78 -52 145 -94 149 -94 5 0 16
-6 24 -14 48 -41 382 -199 561 -264 83 -31 278 -92 293 -92 7 0 -60 108 -74
120 -3 3 -34 52 -68 110 -234 397 -420 914 -541 1510 -40 195 -37 181 -44 226
-4 22 -9 53 -12 71 l-6 32 -789 0 c-435 0 -791 -4 -794 -9z"/>
<path d="M2298 2178 c-2 -6 2 -38 9 -72 7 -34 15 -77 18 -96 26 -165 129 -553
203 -771 197 -576 478 -1013 753 -1172 122 -71 260 -84 371 -34 261 117 538
486 737 982 65 162 200 590 226 715 2 14 16 77 30 140 14 63 28 131 31 150 3
19 12 63 19 98 7 34 10 64 6 66 -4 3 -545 5 -1203 5 -849 0 -1198 -4 -1200
-11z"/>
<path d="M5140 2117 c-7 -40 -14 -81 -16 -92 -41 -213 -63 -313 -110 -500 -61
-239 -169 -567 -234 -710 -11 -24 -20 -46 -20 -49 0 -8 -146 -305 -177 -361
-36 -63 -53 -90 -124 -197 -32 -49 -56 -88 -53 -88 14 0 216 62 280 85 587
218 1053 541 1481 1027 103 117 273 360 371 530 76 131 202 396 202 424 0 1
-357 3 -794 3 l-794 -1 -12 -71z"/>
</g>
</svg>
